  0
SECTION
  2
HEADER
  9
$ACADVER
  1
AC1024
  9
$ACADMAINTVER
 70
6
  9
$DWGCODEPAGE
  3
ANSI_1252
  9
$LASTSAVEDBY
  1
ezdxf
  9
$INSBASE
 10
0.0
 20
0.0
 30
0.0
  9
$EXTMIN
 10
1e+20
 20
1e+20
 30
1e+20
  9
$EXTMAX
 10
-1e+20
 20
-1e+20
 30
-1e+20
  9
$LIMMIN
 10
0.0
 20
0.0
  9
$LIMMAX
 10
420.0
 20
297.0
  9
$ORTHOMODE
 70
0
  9
$REGENMODE
 70
1
  9
$FILLMODE
 70
1
  9
$QTEXTMODE
 70
0
  9
$MIRRTEXT
 70
1
  9
$LTSCALE
 40
1.0
  9
$ATTMODE
 70
1
  9
$TEXTSIZE
 40
2.5
  9
$TRACEWID
 40
1.0
  9
$TEXTSTYLE
  7
Standard
  9
$CLAYER
  8
0
  9
$CELTYPE
  6
ByLayer
  9
$CECOLOR
 62
256
  9
$CELTSCALE
 40
1.0
  9
$DISPSILH
 70
0
  9
$DIMSCALE
 40
1.0
  9
$DIMASZ
 40
2.5
  9
$DIMEXO
 40
0.625
  9
$DIMDLI
 40
3.75
  9
$DIMRND
 40
0.0
  9
$DIMDLE
 40
0.0
  9
$DIMEXE
 40
1.25
  9
$DIMTP
 40
0.0
  9
$DIMTM
 40
0.0
  9
$DIMTXT
 40
2.5
  9
$DIMCEN
 40
2.5
  9
$DIMTSZ
 40
0.0
  9
$DIMTOL
 70
0
  9
$DIMLIM
 70
0
  9
$DIMTIH
 70
0
  9
$DIMTOH
 70
0
  9
$DIMSE1
 70
0
  9
$DIMSE2
 70
0
  9
$DIMTAD
 70
1
  9
$DIMZIN
 70
8
  9
$DIMBLK
  1

  9
$DIMASO
 70
1
  9
$DIMSHO
 70
1
  9
$DIMPOST
  1

  9
$DIMAPOST
  1

  9
$DIMALT
 70
0
  9
$DIMALTD
 70
3
  9
$DIMALTF
 40
0.03937007874
  9
$DIMLFAC
 40
1.0
  9
$DIMTOFL
 70
1
  9
$DIMTVP
 40
0.0
  9
$DIMTIX
 70
0
  9
$DIMSOXD
 70
0
  9
$DIMSAH
 70
0
  9
$DIMBLK1
  1

  9
$DIMBLK2
  1

  9
$DIMSTYLE
  2
ISO-25
  9
$DIMCLRD
 70
0
  9
$DIMCLRE
 70
0
  9
$DIMCLRT
 70
0
  9
$DIMTFAC
 40
1.0
  9
$DIMGAP
 40
0.625
  9
$DIMJUST
 70
0
  9
$DIMSD1
 70
0
  9
$DIMSD2
 70
0
  9
$DIMTOLJ
 70
0
  9
$DIMTZIN
 70
8
  9
$DIMALTZ
 70
0
  9
$DIMALTTZ
 70
0
  9
$DIMUPT
 70
0
  9
$DIMDEC
 70
2
  9
$DIMTDEC
 70
2
  9
$DIMALTU
 70
2
  9
$DIMALTTD
 70
3
  9
$DIMTXSTY
  7
Standard
  9
$DIMAUNIT
 70
0
  9
$DIMADEC
 70
0
  9
$DIMALTRND
 40
0.0
  9
$DIMAZIN
 70
0
  9
$DIMDSEP
 70
44
  9
$DIMATFIT
 70
3
  9
$DIMFRAC
 70
0
  9
$DIMLDRBLK
  1

  9
$DIMLUNIT
 70
2
  9
$DIMLWD
 70
-2
  9
$DIMLWE
 70
-2
  9
$DIMTMOVE
 70
0
  9
$DIMFXL
 40
1.0
  9
$DIMFXLON
 70
0
  9
$DIMJOGANG
 40
0.785398163397
  9
$DIMTFILL
 70
0
  9
$DIMTFILLCLR
 70
0
  9
$DIMARCSYM
 70
0
  9
$DIMLTYPE
  6

  9
$DIMLTEX1
  6

  9
$DIMLTEX2
  6

  9
$DIMTXTDIRECTION
 70
0
  9
$LUNITS
 70
2
  9
$LUPREC
 70
4
  9
$SKETCHINC
 40
1.0
  9
$FILLETRAD
 40
10.0
  9
$AUNITS
 70
0
  9
$AUPREC
 70
2
  9
$MENU
  1
.
  9
$ELEVATION
 40
0.0
  9
$PELEVATION
 40
0.0
  9
$THICKNESS
 40
0.0
  9
$LIMCHECK
 70
0
  9
$CHAMFERA
 40
0.0
  9
$CHAMFERB
 40
0.0
  9
$CHAMFERC
 40
0.0
  9
$CHAMFERD
 40
0.0
  9
$SKPOLY
 70
0
  9
$TDCREATE
 40
2461159.6123842592
  9
$TDUCREATE
 40
2458532.153996898
  9
$TDUPDATE
 40
2461159.6123842592
  9
$TDUUPDATE
 40
2458532.1544311
  9
$TDINDWG
 40
0.0
  9
$TDUSRTIMER
 40
0.0
  9
$USRTIMER
 70
1
  9
$ANGBASE
 50
0.0
  9
$ANGDIR
 70
0
  9
$PDMODE
 70
0
  9
$PDSIZE
 40
0.0
  9
$PLINEWID
 40
0.0
  9
$SPLFRAME
 70
0
  9
$SPLINETYPE
 70
6
  9
$SPLINESEGS
 70
8
  9
$HANDSEED
  5
13A
  9
$SURFTAB1
 70
6
  9
$SURFTAB2
 70
6
  9
$SURFTYPE
 70
6
  9
$SURFU
 70
6
  9
$SURFV
 70
6
  9
$UCSBASE
  2

  9
$UCSNAME
  2

  9
$UCSORG
 10
0.0
 20
0.0
 30
0.0
  9
$UCSXDIR
 10
1.0
 20
0.0
 30
0.0
  9
$UCSYDIR
 10
0.0
 20
1.0
 30
0.0
  9
$UCSORTHOREF
  2

  9
$UCSORTHOVIEW
 70
0
  9
$UCSORGTOP
 10
0.0
 20
0.0
 30
0.0
  9
$UCSORGBOTTOM
 10
0.0
 20
0.0
 30
0.0
  9
$UCSORGLEFT
 10
0.0
 20
0.0
 30
0.0
  9
$UCSORGRIGHT
 10
0.0
 20
0.0
 30
0.0
  9
$UCSORGFRONT
 10
0.0
 20
0.0
 30
0.0
  9
$UCSORGBACK
 10
0.0
 20
0.0
 30
0.0
  9
$PUCSBASE
  2

  9
$PUCSNAME
  2

  9
$PUCSORG
 10
0.0
 20
0.0
 30
0.0
  9
$PUCSXDIR
 10
1.0
 20
0.0
 30
0.0
  9
$PUCSYDIR
 10
0.0
 20
1.0
 30
0.0
  9
$PUCSORTHOREF
  2

  9
$PUCSORTHOVIEW
 70
0
  9
$PUCSORGTOP
 10
0.0
 20
0.0
 30
0.0
  9
$PUCSORGBOTTOM
 10
0.0
 20
0.0
 30
0.0
  9
$PUCSORGLEFT
 10
0.0
 20
0.0
 30
0.0
  9
$PUCSORGRIGHT
 10
0.0
 20
0.0
 30
0.0
  9
$PUCSORGFRONT
 10
0.0
 20
0.0
 30
0.0
  9
$PUCSORGBACK
 10
0.0
 20
0.0
 30
0.0
  9
$USERI1
 70
0
  9
$USERI2
 70
0
  9
$USERI3
 70
0
  9
$USERI4
 70
0
  9
$USERI5
 70
0
  9
$USERR1
 40
0.0
  9
$USERR2
 40
0.0
  9
$USERR3
 40
0.0
  9
$USERR4
 40
0.0
  9
$USERR5
 40
0.0
  9
$WORLDVIEW
 70
1
  9
$SHADEDGE
 70
3
  9
$SHADEDIF
 70
70
  9
$TILEMODE
 70
1
  9
$MAXACTVP
 70
64
  9
$PINSBASE
 10
0.0
 20
0.0
 30
0.0
  9
$PLIMCHECK
 70
0
  9
$PEXTMIN
 10
1e+20
 20
1e+20
 30
1e+20
  9
$PEXTMAX
 10
-1e+20
 20
-1e+20
 30
-1e+20
  9
$PLIMMIN
 10
0.0
 20
0.0
  9
$PLIMMAX
 10
420.0
 20
297.0
  9
$UNITMODE
 70
0
  9
$VISRETAIN
 70
1
  9
$PLINEGEN
 70
0
  9
$PSLTSCALE
 70
1
  9
$TREEDEPTH
 70
3020
  9
$CMLSTYLE
  2
Standard
  9
$CMLJUST
 70
0
  9
$CMLSCALE
 40
20.0
  9
$PROXYGRAPHICS
 70
1
  9
$MEASUREMENT
 70
1
  9
$CELWEIGHT
370
-1
  9
$ENDCAPS
280
0
  9
$JOINSTYLE
280
0
  9
$LWDISPLAY
290
0
  9
$INSUNITS
 70
4
  9
$HYPERLINKBASE
  1

  9
$STYLESHEET
  1

  9
$XEDIT
290
1
  9
$CEPSNTYPE
380
0
  9
$PSTYLEMODE
290
1
  9
$FINGERPRINTGUID
  2
{97CB09E7-60DC-47BE-87D0-4E56B1A25956}
  9
$VERSIONGUID
  2
{75752528-E1E0-4691-987F-52ABC1490E51}
  9
$EXTNAMES
290
1
  9
$PSVPSCALE
 40
0.0
  9
$OLESTARTUP
290
0
  9
$SORTENTS
280
127
  9
$INDEXCTL
280
0
  9
$HIDETEXT
280
1
  9
$XCLIPFRAME
280
1
  9
$HALOGAP
280
0
  9
$OBSCOLOR
 70
257
  9
$OBSLTYPE
280
0
  9
$INTERSECTIONDISPLAY
280
0
  9
$INTERSECTIONCOLOR
 70
257
  9
$DIMASSOC
280
2
  9
$PROJECTNAME
  1

  9
$CAMERADISPLAY
290
0
  9
$LENSLENGTH
 40
50.0
  9
$CAMERAHEIGHT
 40
0.0
  9
$STEPSPERSEC
 40
24.0
  9
$STEPSIZE
 40
100.0
  9
$3DDWFPREC
 40
2.0
  9
$PSOLWIDTH
 40
0.005
  9
$PSOLHEIGHT
 40
0.08
  9
$LOFTANG1
 40
1.570796326795
  9
$LOFTANG2
 40
1.570796326795
  9
$LOFTMAG1
 40
0.0
  9
$LOFTMAG2
 40
0.0
  9
$LOFTPARAM
 70
7
  9
$LOFTNORMALS
280
1
  9
$LATITUDE
 40
37.795
  9
$LONGITUDE
 40
-122.394
  9
$NORTHDIRECTION
 40
0.0
  9
$TIMEZONE
 70
-8000
  9
$LIGHTGLYPHDISPLAY
280
1
  9
$TILEMODELIGHTSYNCH
280
1
  9
$CMATERIAL
347
20
  9
$SOLIDHIST
280
0
  9
$SHOWHIST
280
1
  9
$DWFFRAME
280
2
  9
$DGNFRAME
280
2
  9
$REALWORLDSCALE
290
1
  9
$INTERFERECOLOR
 62
256
  9
$CSHADOW
280
0
  9
$SHADOWPLANELOCATION
 40
0.0
  0
ENDSEC
  0
SECTION
  2
CLASSES
  0
CLASS
  1
ACDBDICTIONARYWDFLT
  2
AcDbDictionaryWithDefault
  3
ObjectDBX Classes
 90
0
 91
0
280
0
281
0
  0
CLASS
  1
SUN
  2
AcDbSun
  3
SCENEOE
 90
1153
 91
0
280
0
281
0
  0
CLASS
  1
VISUALSTYLE
  2
AcDbVisualStyle
  3
ObjectDBX Classes
 90
4095
 91
0
280
0
281
0
  0
CLASS
  1
MATERIAL
  2
AcDbMaterial
  3
ObjectDBX Classes
 90
1153
 91
0
280
0
281
0
  0
CLASS
  1
SCALE
  2
AcDbScale
  3
ObjectDBX Classes
 90
1153
 91
0
280
0
281
0
  0
CLASS
  1
TABLESTYLE
  2
AcDbTableStyle
  3
ObjectDBX Classes
 90
4095
 91
0
280
0
281
0
  0
CLASS
  1
MLEADERSTYLE
  2
AcDbMLeaderStyle
  3
ACDB_MLEADERSTYLE_CLASS
 90
4095
 91
0
280
0
281
0
  0
CLASS
  1
DICTIONARYVAR
  2
AcDbDictionaryVar
  3
ObjectDBX Classes
 90
0
 91
0
280
0
281
0
  0
CLASS
  1
CELLSTYLEMAP
  2
AcDbCellStyleMap
  3
ObjectDBX Classes
 90
1152
 91
0
280
0
281
0
  0
CLASS
  1
MENTALRAYRENDERSETTINGS
  2
AcDbMentalRayRenderSettings
  3
SCENEOE
 90
1024
 91
0
280
0
281
0
  0
CLASS
  1
ACDBDETAILVIEWSTYLE
  2
AcDbDetailViewStyle
  3
ObjectDBX Classes
 90
1025
 91
0
280
0
281
0
  0
CLASS
  1
ACDBSECTIONVIEWSTYLE
  2
AcDbSectionViewStyle
  3
ObjectDBX Classes
 90
1025
 91
0
280
0
281
0
  0
CLASS
  1
RASTERVARIABLES
  2
AcDbRasterVariables
  3
ISM
 90
0
 91
0
280
0
281
0
  0
CLASS
  1
LAYOUT
  2
AcDbLayout
  3
ObjectDBX Classes
 90
0
 91
0
280
0
281
0
  0
CLASS
  1
ACDBPLACEHOLDER
  2
AcDbPlaceHolder
  3
ObjectDBX Classes
 90
0
 91
0
280
0
281
0
  0
ENDSEC
  0
SECTION
  2
TABLES
  0
TABLE
  2
VPORT
  5
8
330
0
100
AcDbSymbolTable
 70
1
  0
VPORT
  5
23
330
8
100
AcDbSymbolTableRecord
100
AcDbViewportTableRecord
  2
*Active
 70
0
 10
0.0
 20
0.0
 11
1.0
 21
1.0
 12
0.0
 22
0.0
 13
0.0
 23
0.0
 14
0.5
 24
0.5
 15
0.5
 25
0.5
 16
0.0
 26
0.0
 36
1.0
 17
0.0
 27
0.0
 37
0.0
 40
1000.0
 41
1.34
 42
50.0
 43
0.0
 44
0.0
 50
0.0
 51
0.0
 71
0
 72
1000
 73
1
 74
3
 75
0
 76
0
 77
0
 78
0
281
0
 65
0
146
0.0
  0
ENDTAB
  0
TABLE
  2
LTYPE
  5
2
330
0
100
AcDbSymbolTable
 70
4
  0
LTYPE
  5
24
330
2
100
AcDbSymbolTableRecord
100
AcDbLinetypeTableRecord
  2
ByBlock
 70
0
  3

 72
65
 73
0
 40
0.0
  0
LTYPE
  5
25
330
2
100
AcDbSymbolTableRecord
100
AcDbLinetypeTableRecord
  2
ByLayer
 70
0
  3

 72
65
 73
0
 40
0.0
  0
LTYPE
  5
26
330
2
100
AcDbSymbolTableRecord
100
AcDbLinetypeTableRecord
  2
Continuous
 70
0
  3

 72
65
 73
0
 40
0.0
  0
LTYPE
  5
38
330
2
100
AcDbSymbolTableRecord
100
AcDbLinetypeTableRecord
  2
DASHED2
 70
0
  3
Dashed2
 72
65
 73
2
 40
0.0
 49
0.4
 74
0
 49
-0.2
 74
0
  0
ENDTAB
  0
TABLE
  2
LAYER
  5
1
330
0
100
AcDbSymbolTable
 70
11
  0
LAYER
  5
27
330
1
100
AcDbSymbolTableRecord
100
AcDbLayerTableRecord
  2
0
 70
0
 62
7
  6
Continuous
370
-3
390
13
347
21
  0
LAYER
  5
28
330
1
100
AcDbSymbolTableRecord
100
AcDbLayerTableRecord
  2
Defpoints
 70
0
 62
7
  6
Continuous
290
0
370
-3
390
13
347
21
  0
LAYER
  5
2F
330
1
100
AcDbSymbolTableRecord
100
AcDbLayerTableRecord
  2
MV
 70
0
 62
1
  6
Continuous
370
50
390
13
347
21
  0
LAYER
  5
30
330
1
100
AcDbSymbolTableRecord
100
AcDbLayerTableRecord
  2
LV
 70
0
 62
2
  6
Continuous
370
35
390
13
347
21
  0
LAYER
  5
31
330
1
100
AcDbSymbolTableRecord
100
AcDbLayerTableRecord
  2
CTRL
 70
0
 62
4
  6
Continuous
370
18
390
13
347
21
  0
LAYER
  5
32
330
1
100
AcDbSymbolTableRecord
100
AcDbLayerTableRecord
  2
SYM
 70
0
 62
7
  6
Continuous
370
35
390
13
347
21
  0
LAYER
  5
33
330
1
100
AcDbSymbolTableRecord
100
AcDbLayerTableRecord
  2
ANN
 70
0
 62
8
  6
Continuous
370
18
390
13
347
21
  0
LAYER
  5
34
330
1
100
AcDbSymbolTableRecord
100
AcDbLayerTableRecord
  2
BNDRY
 70
0
 62
3
  6
Continuous
370
18
390
13
347
21
  0
LAYER
  5
35
330
1
100
AcDbSymbolTableRecord
100
AcDbLayerTableRecord
  2
FRAME
 70
0
 62
7
  6
Continuous
370
50
390
13
347
21
  0
LAYER
  5
36
330
1
100
AcDbSymbolTableRecord
100
AcDbLayerTableRecord
  2
TITLE
 70
0
 62
7
  6
Continuous
370
25
390
13
347
21
  0
LAYER
  5
37
330
1
100
AcDbSymbolTableRecord
100
AcDbLayerTableRecord
  2
DIM
 70
0
 62
8
  6
Continuous
370
13
390
13
347
21
  0
ENDTAB
  0
TABLE
  2
STYLE
  5
5
330
0
100
AcDbSymbolTable
 70
1
  0
STYLE
  5
29
330
5
100
AcDbSymbolTableRecord
100
AcDbTextStyleTableRecord
  2
Standard
 70
0
 40
0.0
 41
1.0
 50
0.0
 71
0
 42
2.5
  3
txt
  4

  0
ENDTAB
  0
TABLE
  2
VIEW
  5
7
330
0
100
AcDbSymbolTable
 70
0
  0
ENDTAB
  0
TABLE
  2
UCS
  5
6
330
0
100
AcDbSymbolTable
 70
0
  0
ENDTAB
  0
TABLE
  2
APPID
  5
3
330
0
100
AcDbSymbolTable
 70
3
  0
APPID
  5
2A
330
3
100
AcDbSymbolTableRecord
100
AcDbRegAppTableRecord
  2
ACAD
 70
0
  0
APPID
  5
137
330
3
100
AcDbSymbolTableRecord
100
AcDbRegAppTableRecord
  2
HATCHBACKGROUNDCOLOR
 70
0
  0
APPID
  5
138
330
3
100
AcDbSymbolTableRecord
100
AcDbRegAppTableRecord
  2
EZDXF
 70
0
  0
ENDTAB
  0
TABLE
  2
DIMSTYLE
  5
4
330
0
100
AcDbSymbolTable
 70
1
100
AcDbDimStyleTable
  0
DIMSTYLE
105
2B
330
4
100
AcDbSymbolTableRecord
100
AcDbDimStyleTableRecord
  2
Standard
 70
0
 40
1.0
 41
2.5
 42
0.625
 43
3.75
 44
1.25
 45
0.0
 46
0.0
 47
0.0
 48
0.0
 49
2.5
140
2.5
141
2.5
142
0.0
143
0.03937007874
144
1.0
145
0.0
146
1.0
147
0.625
148
0.0
 69
0
 70
0
 71
0
 72
0
 73
0
 74
0
 75
0
 76
0
 77
1
 78
8
 79
3
170
0
171
3
172
1
173
0
174
0
175
0
176
0
177
0
178
0
179
2
271
2
272
2
273
2
274
3
275
0
276
0
277
2
278
44
279
0
280
0
281
0
282
0
283
0
284
8
285
0
286
0
288
0
289
3
290
0
371
-2
372
-2
  0
ENDTAB
  0
TABLE
  2
BLOCK_RECORD
  5
9
330
0
100
AcDbSymbolTable
 70
12
  0
BLOCK_RECORD
  5
17
330
9
100
AcDbSymbolTableRecord
100
AcDbBlockTableRecord
  2
*Model_Space
340
1A
 70
0
280
1
281
0
  0
BLOCK_RECORD
  5
1B
330
9
100
AcDbSymbolTableRecord
100
AcDbBlockTableRecord
  2
*Paper_Space
340
1E
 70
0
280
1
281
0
  0
BLOCK_RECORD
  5
39
330
9
100
AcDbSymbolTableRecord
100
AcDbBlockTableRecord
  2
_CB
340
0
 70
0
280
1
281
0
  0
BLOCK_RECORD
  5
40
330
9
100
AcDbSymbolTableRecord
100
AcDbBlockTableRecord
  2
_DS
340
0
 70
0
280
1
281
0
  0
BLOCK_RECORD
  5
48
330
9
100
AcDbSymbolTableRecord
100
AcDbBlockTableRecord
  2
_CT
340
0
 70
0
280
1
281
0
  0
BLOCK_RECORD
  5
4E
330
9
100
AcDbSymbolTableRecord
100
AcDbBlockTableRecord
  2
_VT
340
0
 70
0
280
1
281
0
  0
BLOCK_RECORD
  5
54
330
9
100
AcDbSymbolTableRecord
100
AcDbBlockTableRecord
  2
_TX
340
0
 70
0
280
1
281
0
  0
BLOCK_RECORD
  5
5F
330
9
100
AcDbSymbolTableRecord
100
AcDbBlockTableRecord
  2
_SA
340
0
 70
0
280
1
281
0
  0
BLOCK_RECORD
  5
66
330
9
100
AcDbSymbolTableRecord
100
AcDbBlockTableRecord
  2
_NER
340
0
 70
0
280
1
281
0
  0
BLOCK_RECORD
  5
71
330
9
100
AcDbSymbolTableRecord
100
AcDbBlockTableRecord
  2
_ACB_M
340
0
 70
0
280
1
281
0
  0
BLOCK_RECORD
  5
79
330
9
100
AcDbSymbolTableRecord
100
AcDbBlockTableRecord
  2
_ACB_B
340
0
 70
0
280
1
281
0
  0
BLOCK_RECORD
  5
81
330
9
100
AcDbSymbolTableRecord
100
AcDbBlockTableRecord
  2
_M
340
0
 70
0
280
1
281
0
  0
ENDTAB
  0
ENDSEC
  0
SECTION
  2
BLOCKS
  0
BLOCK
  5
18
330
17
100
AcDbEntity
  8
0
100
AcDbBlockBegin
  2
*Model_Space
 70
0
 10
0.0
 20
0.0
 30
0.0
  3
*Model_Space
  1

  0
ENDBLK
  5
19
330
17
100
AcDbEntity
  8
0
100
AcDbBlockEnd
  0
BLOCK
  5
1C
330
1B
100
AcDbEntity
  8
0
100
AcDbBlockBegin
  2
*Paper_Space
 70
0
 10
0.0
 20
0.0
 30
0.0
  3
*Paper_Space
  1

  0
ENDBLK
  5
1D
330
1B
100
AcDbEntity
  8
0
100
AcDbBlockEnd
  0
BLOCK
  5
3A
330
39
100
AcDbEntity
  8
0
100
AcDbBlockBegin
  2
_CB
 70
0
 10
0.0
 20
0.0
 30
0.0
  3
_CB
  1

  0
LWPOLYLINE
  5
3C
330
39
100
AcDbEntity
  8
0
370
30
100
AcDbPolyline
 90
4
 70
1
 10
-3.0
 20
-4.0
 10
3.0
 20
-4.0
 10
3.0
 20
4.0
 10
-3.0
 20
4.0
  0
LINE
  5
3D
330
39
100
AcDbEntity
  8
0
100
AcDbLine
 10
-3.0
 20
-4.0
 30
0.0
 11
3.0
 21
4.0
 31
0.0
  0
LINE
  5
3E
330
39
100
AcDbEntity
  8
0
100
AcDbLine
 10
3.0
 20
-4.0
 30
0.0
 11
-3.0
 21
4.0
 31
0.0
  0
TEXT
  5
3F
330
39
100
AcDbEntity
  8
0
100
AcDbText
 10
4.0
 20
0.0
 30
0.0
 40
2.0
  1
I>
 11
4.0
 21
0.0
 31
0.0
100
AcDbText
  0
ENDBLK
  5
3B
330
39
100
AcDbEntity
  8
0
100
AcDbBlockEnd
  0
BLOCK
  5
41
330
40
100
AcDbEntity
  8
0
100
AcDbBlockBegin
  2
_DS
 70
0
 10
0.0
 20
0.0
 30
0.0
  3
_DS
  1

  0
CIRCLE
  5
43
330
40
100
AcDbEntity
  8
0
100
AcDbCircle
 10
-2.0
 20
0.0
 30
0.0
 40
1.5
  0
LINE
  5
44
330
40
100
AcDbEntity
  8
0
100
AcDbLine
 10
-2.0
 20
1.5
 30
0.0
 11
3.0
 21
6.0
 31
0.0
  0
CIRCLE
  5
45
330
40
100
AcDbEntity
  8
0
100
AcDbCircle
 10
0.0
 20
7.0
 30
0.0
 40
1.5
  0
LINE
  5
46
330
40
100
AcDbEntity
  8
0
100
AcDbLine
 10
-2.0
 20
-1.5
 30
0.0
 11
-2.0
 21
-4.0
 31
0.0
  0
LINE
  5
47
330
40
100
AcDbEntity
  8
0
100
AcDbLine
 10
0.0
 20
8.5
 30
0.0
 11
0.0
 21
11.0
 31
0.0
  0
ENDBLK
  5
42
330
40
100
AcDbEntity
  8
0
100
AcDbBlockEnd
  0
BLOCK
  5
49
330
48
100
AcDbEntity
  8
0
100
AcDbBlockBegin
  2
_CT
 70
0
 10
0.0
 20
0.0
 30
0.0
  3
_CT
  1

  0
CIRCLE
  5
4B
330
48
100
AcDbEntity
  8
0
370
25
100
AcDbCircle
 10
0.0
 20
0.0
 30
0.0
 40
3.5
  0
LINE
  5
4C
330
48
100
AcDbEntity
  8
0
100
AcDbLine
 10
0.0
 20
-6.0
 30
0.0
 11
0.0
 21
-3.5
 31
0.0
  0
LINE
  5
4D
330
48
100
AcDbEntity
  8
0
100
AcDbLine
 10
0.0
 20
3.5
 30
0.0
 11
0.0
 21
6.0
 31
0.0
  0
ENDBLK
  5
4A
330
48
100
AcDbEntity
  8
0
100
AcDbBlockEnd
  0
BLOCK
  5
4F
330
4E
100
AcDbEntity
  8
0
100
AcDbBlockBegin
  2
_VT
 70
0
 10
0.0
 20
0.0
 30
0.0
  3
_VT
  1

  0
LINE
  5
51
330
4E
100
AcDbEntity
  8
0
100
AcDbLine
 10
0.0
 20
-5.0
 30
0.0
 11
0.0
 21
5.0
 31
0.0
  0
LINE
  5
52
330
4E
100
AcDbEntity
  8
0
100
AcDbLine
 10
-3.0
 20
-1.5
 30
0.0
 11
3.0
 21
-1.5
 31
0.0
  0
LINE
  5
53
330
4E
100
AcDbEntity
  8
0
100
AcDbLine
 10
-2.5
 20
1.5
 30
0.0
 11
2.5
 21
1.5
 31
0.0
  0
ENDBLK
  5
50
330
4E
100
AcDbEntity
  8
0
100
AcDbBlockEnd
  0
BLOCK
  5
55
330
54
100
AcDbEntity
  8
0
100
AcDbBlockBegin
  2
_TX
 70
0
 10
0.0
 20
0.0
 30
0.0
  3
_TX
  1

  0
CIRCLE
  5
57
330
54
100
AcDbEntity
  8
0
370
40
100
AcDbCircle
 10
0.0
 20
6.375
 30
0.0
 40
7.5
  0
CIRCLE
  5
58
330
54
100
AcDbEntity
  8
0
370
40
100
AcDbCircle
 10
0.0
 20
-6.375
 30
0.0
 40
7.5
  0
LINE
  5
59
330
54
100
AcDbEntity
  8
0
100
AcDbLine
 10
0.0
 20
13.875
 30
0.0
 11
0.0
 21
17.875
 31
0.0
  0
LINE
  5
5A
330
54
100
AcDbEntity
  8
0
100
AcDbLine
 10
0.0
 20
-13.875
 30
0.0
 11
0.0
 21
-17.875
 31
0.0
  0
LWPOLYLINE
  5
5B
330
54
100
AcDbEntity
  8
0
100
AcDbPolyline
 90
3
 70
1
 10
-2.2
 20
7.875
 10
0.0
 20
11.395
 10
2.2
 20
7.875
  0
LINE
  5
5C
330
54
100
AcDbEntity
  8
0
100
AcDbLine
 10
0.0
 20
-7.875
 30
0.0
 11
1.3471114790620887e-16
 21
-5.675
 31
0.0
  0
LINE
  5
5D
330
54
100
AcDbEntity
  8
0
100
AcDbLine
 10
0.0
 20
-7.875
 30
0.0
 11
-1.905255888325765
 21
-8.975
 31
0.0
  0
LINE
  5
5E
330
54
100
AcDbEntity
  8
0
100
AcDbLine
 10
0.0
 20
-7.875
 30
0.0
 11
1.9052558883257646
 21
-8.975000000000001
 31
0.0
  0
ENDBLK
  5
56
330
54
100
AcDbEntity
  8
0
100
AcDbBlockEnd
  0
BLOCK
  5
60
330
5F
100
AcDbEntity
  8
0
100
AcDbBlockBegin
  2
_SA
 70
0
 10
0.0
 20
0.0
 30
0.0
  3
_SA
  1

  0
LWPOLYLINE
  5
62
330
5F
100
AcDbEntity
  8
0
100
AcDbPolyline
 90
4
 70
1
 10
-2.5
 20
-3.5
 10
2.5
 20
-3.5
 10
2.5
 20
3.5
 10
-2.5
 20
3.5
  0
LINE
  5
63
330
5F
100
AcDbEntity
  8
0
100
AcDbLine
 10
0.0
 20
-3.5
 30
0.0
 11
0.0
 21
-7.0
 31
0.0
  0
LINE
  5
64
330
5F
100
AcDbEntity
  8
0
100
AcDbLine
 10
0.0
 20
3.5
 30
0.0
 11
0.0
 21
7.0
 31
0.0
  0
LINE
  5
65
330
5F
100
AcDbEntity
  8
0
100
AcDbLine
 10
-2.5
 20
-3.5
 30
0.0
 11
2.5
 21
3.5
 31
0.0
  0
ENDBLK
  5
61
330
5F
100
AcDbEntity
  8
0
100
AcDbBlockEnd
  0
BLOCK
  5
67
330
66
100
AcDbEntity
  8
0
100
AcDbBlockBegin
  2
_NER
 70
0
 10
0.0
 20
0.0
 30
0.0
  3
_NER
  1

  0
LWPOLYLINE
  5
69
330
66
100
AcDbEntity
  8
0
370
25
100
AcDbPolyline
 90
4
 70
1
 10
-3.5
 20
-4.0
 10
3.5
 20
-4.0
 10
3.5
 20
4.0
 10
-3.5
 20
4.0
  0
LINE
  5
6A
330
66
100
AcDbEntity
  8
0
100
AcDbLine
 10
-2.5
 20
2.0
 30
0.0
 11
2.5
 21
2.0
 31
0.0
  0
LINE
  5
6B
330
66
100
AcDbEntity
  8
0
100
AcDbLine
 10
-2.5
 20
0.0
 30
0.0
 11
2.5
 21
0.0
 31
0.0
  0
LINE
  5
6C
330
66
100
AcDbEntity
  8
0
100
AcDbLine
 10
-2.5
 20
-2.0
 30
0.0
 11
2.5
 21
-2.0
 31
0.0
  0
LINE
  5
6D
330
66
100
AcDbEntity
  8
0
100
AcDbLine
 10
0.0
 20
-4.0
 30
0.0
 11
0.0
 21
-7.0
 31
0.0
  0
LINE
  5
6E
330
66
100
AcDbEntity
  8
0
100
AcDbLine
 10
-4.0
 20
-7.0
 30
0.0
 11
4.0
 21
-7.0
 31
0.0
  0
LINE
  5
6F
330
66
100
AcDbEntity
  8
0
100
AcDbLine
 10
-2.8
 20
-8.5
 30
0.0
 11
2.8
 21
-8.5
 31
0.0
  0
LINE
  5
70
330
66
100
AcDbEntity
  8
0
100
AcDbLine
 10
-1.5
 20
-10.0
 30
0.0
 11
1.5
 21
-10.0
 31
0.0
  0
ENDBLK
  5
68
330
66
100
AcDbEntity
  8
0
100
AcDbBlockEnd
  0
BLOCK
  5
72
330
71
100
AcDbEntity
  8
0
100
AcDbBlockBegin
  2
_ACB_M
 70
0
 10
0.0
 20
0.0
 30
0.0
  3
_ACB_M
  1

  0
LWPOLYLINE
  5
74
330
71
100
AcDbEntity
  8
0
370
40
100
AcDbPolyline
 90
4
 70
1
 10
-4.5
 20
-5.5
 10
4.5
 20
-5.5
 10
4.5
 20
5.5
 10
-4.5
 20
5.5
  0
LINE
  5
75
330
71
100
AcDbEntity
  8
0
100
AcDbLine
 10
-4.5
 20
-5.5
 30
0.0
 11
4.5
 21
5.5
 31
0.0
  0
LINE
  5
76
330
71
100
AcDbEntity
  8
0
100
AcDbLine
 10
4.5
 20
-5.5
 30
0.0
 11
-4.5
 21
5.5
 31
0.0
  0
LINE
  5
77
330
71
100
AcDbEntity
  8
0
100
AcDbLine
 10
0.0
 20
-5.5
 30
0.0
 11
0.0
 21
-8.5
 31
0.0
  0
LINE
  5
78
330
71
100
AcDbEntity
  8
0
100
AcDbLine
 10
0.0
 20
5.5
 30
0.0
 11
0.0
 21
8.5
 31
0.0
  0
ENDBLK
  5
73
330
71
100
AcDbEntity
  8
0
100
AcDbBlockEnd
  0
BLOCK
  5
7A
330
79
100
AcDbEntity
  8
0
100
AcDbBlockBegin
  2
_ACB_B
 70
0
 10
0.0
 20
0.0
 30
0.0
  3
_ACB_B
  1

  0
LWPOLYLINE
  5
7C
330
79
100
AcDbEntity
  8
0
370
40
100
AcDbPolyline
 90
4
 70
1
 10
-3.0
 20
-4.0
 10
3.0
 20
-4.0
 10
3.0
 20
4.0
 10
-3.0
 20
4.0
  0
LINE
  5
7D
330
79
100
AcDbEntity
  8
0
100
AcDbLine
 10
-3.0
 20
-4.0
 30
0.0
 11
3.0
 21
4.0
 31
0.0
  0
LINE
  5
7E
330
79
100
AcDbEntity
  8
0
100
AcDbLine
 10
3.0
 20
-4.0
 30
0.0
 11
-3.0
 21
4.0
 31
0.0
  0
LINE
  5
7F
330
79
100
AcDbEntity
  8
0
100
AcDbLine
 10
0.0
 20
-4.0
 30
0.0
 11
0.0
 21
-7.0
 31
0.0
  0
LINE
  5
80
330
79
100
AcDbEntity
  8
0
100
AcDbLine
 10
0.0
 20
4.0
 30
0.0
 11
0.0
 21
7.0
 31
0.0
  0
ENDBLK
  5
7B
330
79
100
AcDbEntity
  8
0
100
AcDbBlockEnd
  0
BLOCK
  5
82
330
81
100
AcDbEntity
  8
0
100
AcDbBlockBegin
  2
_M
 70
0
 10
0.0
 20
0.0
 30
0.0
  3
_M
  1

  0
LWPOLYLINE
  5
84
330
81
100
AcDbEntity
  8
0
100
AcDbPolyline
 90
4
 70
1
 10
-4.0
 20
-3.0
 10
4.0
 20
-3.0
 10
4.0
 20
3.0
 10
-4.0
 20
3.0
  0
TEXT
  5
85
330
81
100
AcDbEntity
  8
0
100
AcDbText
 10
0.0
 20
-1.0
 30
0.0
 40
3.0
  1
M
 72
1
 11
0.0
 21
-1.0
 31
0.0
100
AcDbText
 73
2
  0
LINE
  5
86
330
81
100
AcDbEntity
  8
0
100
AcDbLine
 10
0.0
 20
-3.0
 30
0.0
 11
0.0
 21
-5.0
 31
0.0
  0
LINE
  5
87
330
81
100
AcDbEntity
  8
0
100
AcDbLine
 10
0.0
 20
3.0
 30
0.0
 11
0.0
 21
5.0
 31
0.0
  0
ENDBLK
  5
83
330
81
100
AcDbEntity
  8
0
100
AcDbBlockEnd
  0
ENDSEC
  0
SECTION
  2
ENTITIES
  0
LWPOLYLINE
  5
88
330
17
100
AcDbEntity
  8
FRAME
370
70
100
AcDbPolyline
 90
4
 70
1
 10
0.0
 20
0.0
 10
420.0
 20
0.0
 10
420.0
 20
297.0
 10
0.0
 20
297.0
  0
LWPOLYLINE
  5
89
330
17
100
AcDbEntity
  8
FRAME
370
40
100
AcDbPolyline
 90
4
 70
1
 10
10.0
 20
48.0
 10
410.0
 20
48.0
 10
410.0
 20
287.0
 10
10.0
 20
287.0
  0
LWPOLYLINE
  5
8A
330
17
100
AcDbEntity
  8
FRAME
370
50
100
AcDbPolyline
 90
4
 70
1
 10
10.0
 20
10.0
 10
410.0
 20
10.0
 10
410.0
 20
48.0
 10
10.0
 20
48.0
  0
LINE
  5
8B
330
17
100
AcDbEntity
  8
FRAME
100
AcDbLine
 10
130.0
 20
10.0
 30
0.0
 11
130.0
 21
48.0
 31
0.0
  0
LINE
  5
8C
330
17
100
AcDbEntity
  8
FRAME
100
AcDbLine
 10
241.99999999999997
 20
10.0
 30
0.0
 11
241.99999999999997
 21
48.0
 31
0.0
  0
LINE
  5
8D
330
17
100
AcDbEntity
  8
FRAME
100
AcDbLine
 10
314.0
 20
10.0
 30
0.0
 11
314.0
 21
48.0
 31
0.0
  0
LINE
  5
8E
330
17
100
AcDbEntity
  8
FRAME
100
AcDbLine
 10
10.0
 20
29.0
 30
0.0
 11
410.0
 21
29.0
 31
0.0
  0
TEXT
  5
8F
330
17
100
AcDbEntity
  8
TITLE
100
AcDbText
 10
12.0
 20
44.5
 30
0.0
 40
1.8
  1
Client:
 11
12.0
 21
44.5
 31
0.0
100
AcDbText
  0
TEXT
  5
90
330
17
100
AcDbEntity
  8
TITLE
100
AcDbText
 10
12.0
 20
40.0
 30
0.0
 40
2.2
  1
Esperia Energy Group / Galascope Ltd
 11
12.0
 21
40.0
 31
0.0
100
AcDbText
  0
TEXT
  5
91
330
17
100
AcDbEntity
  8
TITLE
100
AcDbText
 10
12.0
 20
30.0
 30
0.0
 40
1.8
  1
Project:
 11
12.0
 21
30.0
 31
0.0
100
AcDbText
  0
TEXT
  5
92
330
17
100
AcDbEntity
  8
TITLE
100
AcDbText
 10
12.0
 20
24.0
 30
0.0
 40
2.2
  1
Galascope 1  -  5 MW / 20 MWh BESS
 11
12.0
 21
24.0
 31
0.0
100
AcDbText
  0
TEXT
  5
93
330
17
100
AcDbEntity
  8
TITLE
100
AcDbText
 10
132.0
 20
44.5
 30
0.0
 40
1.8
  1
Title:
 11
132.0
 21
44.5
 31
0.0
100
AcDbText
  0
TEXT
  5
94
330
17
100
AcDbEntity
  8
TITLE
100
AcDbText
 10
132.0
 20
40.0
 30
0.0
 40
2.2
  1
BESS MV/LV Single Line Diagram
 11
132.0
 21
40.0
 31
0.0
100
AcDbText
  0
TEXT
  5
95
330
17
100
AcDbEntity
  8
TITLE
100
AcDbText
 10
132.0
 20
30.0
 30
0.0
 40
1.8
  1
Drawing No.:
 11
132.0
 21
30.0
 31
0.0
100
AcDbText
  0
TEXT
  5
96
330
17
100
AcDbEntity
  8
TITLE
100
AcDbText
 10
132.0
 20
24.0
 30
0.0
 40
2.2
  1
LC-G1-SLD-001
 11
132.0
 21
24.0
 31
0.0
100
AcDbText
  0
TEXT
  5
97
330
17
100
AcDbEntity
  8
TITLE
100
AcDbText
 10
243.99999999999997
 20
44.5
 30
0.0
 40
1.8
  1
Designed by:
 11
243.99999999999997
 21
44.5
 31
0.0
100
AcDbText
  0
TEXT
  5
98
330
17
100
AcDbEntity
  8
TITLE
100
AcDbText
 10
243.99999999999997
 20
40.0
 30
0.0
 40
2.2
  1
Lighthief Cyprus Ltd
 11
243.99999999999997
 21
40.0
 31
0.0
100
AcDbText
  0
TEXT
  5
99
330
17
100
AcDbEntity
  8
TITLE
100
AcDbText
 10
243.99999999999997
 20
30.0
 30
0.0
 40
1.8
  1
Date:
 11
243.99999999999997
 21
30.0
 31
0.0
100
AcDbText
  0
TEXT
  5
9A
330
17
100
AcDbEntity
  8
TITLE
100
AcDbText
 10
243.99999999999997
 20
24.0
 30
0.0
 40
2.2
  1
28/04/2026
 11
243.99999999999997
 21
24.0
 31
0.0
100
AcDbText
  0
TEXT
  5
9B
330
17
100
AcDbEntity
  8
TITLE
100
AcDbText
 10
316.0
 20
44.5
 30
0.0
 40
1.8
  1
Rev.:
 11
316.0
 21
44.5
 31
0.0
100
AcDbText
  0
TEXT
  5
9C
330
17
100
AcDbEntity
  8
TITLE
100
AcDbText
 10
316.0
 20
40.0
 30
0.0
 40
4.0
  1
A
 11
316.0
 21
40.0
 31
0.0
100
AcDbText
  0
TEXT
  5
9D
330
17
100
AcDbEntity
  8
TITLE
100
AcDbText
 10
316.0
 20
30.0
 30
0.0
 40
1.8
  1
Sheet:
 11
316.0
 21
30.0
 31
0.0
100
AcDbText
  0
TEXT
  5
9E
330
17
100
AcDbEntity
  8
TITLE
100
AcDbText
 10
316.0
 20
24.0
 30
0.0
 40
2.2
  1
1 of 1
 11
316.0
 21
24.0
 31
0.0
100
AcDbText
  0
TEXT
  5
9F
330
17
100
AcDbEntity
  8
TITLE
100
AcDbText
 10
12.0
 20
15.0
 30
0.0
 40
5.5
  1
LIGHTHIEF
 11
12.0
 21
15.0
 31
0.0
100
AcDbText
  0
TEXT
  5
A0
330
17
100
AcDbEntity
  8
TITLE
100
AcDbText
 10
12.0
 20
11.5
 30
0.0
 40
1.8
  1
CYPRUS LTD
 11
12.0
 21
11.5
 31
0.0
100
AcDbText
  0
LWPOLYLINE
  5
A1
330
17
100
AcDbEntity
  8
CTRL
100
AcDbPolyline
 90
4
 70
1
 10
10.0
 20
150.0
 10
95.0
 20
150.0
 10
95.0
 20
214.0
 10
10.0
 20
214.0
  0
TEXT
  5
A2
330
17
100
AcDbEntity
  8
CTRL
100
AcDbText
 10
13.0
 20
207.0
 30
0.0
 40
2.2
  1
PROTECTION RELAY
 11
13.0
 21
207.0
 31
0.0
100
AcDbText
  0
TEXT
  5
A3
330
17
100
AcDbEntity
  8
CTRL
100
AcDbText
 10
13.0
 20
202.0
 30
0.0
 40
1.8
  1
Siemens SIPROTEC 7SJ82
 11
13.0
 21
202.0
 31
0.0
100
AcDbText
  0
TEXT
  5
A4
330
17
100
AcDbEntity
  8
ANN
100
AcDbText
 10
13.0
 20
194.0
 30
0.0
 40
1.8
  1
50/51  I>  = 157 A  TMS=0.20
 11
13.0
 21
194.0
 31
0.0
100
AcDbText
  0
TEXT
  5
A5
330
17
100
AcDbEntity
  8
ANN
100
AcDbText
 10
13.0
 20
188.5
 30
0.0
 40
1.8
  1
       I>> = 1050 A  t=0.05s
 11
13.0
 21
188.5
 31
0.0
100
AcDbText
  0
TEXT
  5
A6
330
17
100
AcDbEntity
  8
ANN
100
AcDbText
 10
13.0
 20
183.0
 30
0.0
 40
1.8
  1
50N/51N  IE> = 6.6 A
 11
13.0
 21
183.0
 31
0.0
100
AcDbText
  0
TEXT
  5
A7
330
17
100
AcDbEntity
  8
ANN
100
AcDbText
 10
13.0
 20
177.5
 30
0.0
 40
1.8
  1
67N  dir.EF  80deg  0.4s
 11
13.0
 21
177.5
 31
0.0
100
AcDbText
  0
TEXT
  5
A8
330
17
100
AcDbEntity
  8
ANN
100
AcDbText
 10
13.0
 20
172.0
 30
0.0
 40
1.8
  1
27/59  0.85/1.10 pu  1.0s
 11
13.0
 21
172.0
 31
0.0
100
AcDbText
  0
TEXT
  5
A9
330
17
100
AcDbEntity
  8
ANN
100
AcDbText
 10
13.0
 20
166.5
 30
0.0
 40
1.8
  1
81U/O  47.5/51.5 Hz  inst.
 11
13.0
 21
166.5
 31
0.0
100
AcDbText
  0
TEXT
  5
AA
330
17
100
AcDbEntity
  8
ANN
100
AcDbText
 10
13.0
 20
161.0
 30
0.0
 40
1.8
  1
81R  ROCOF > 1.0 Hz/s  0.5s
 11
13.0
 21
161.0
 31
0.0
100
AcDbText
  0
TEXT
  5
AB
330
17
100
AcDbEntity
  8
ANN
100
AcDbText
 10
13.0
 20
155.5
 30
0.0
 40
1.8
  1
78  Vec.shift > 8 deg  inst.
 11
13.0
 21
155.5
 31
0.0
100
AcDbText
  0
LINE
  5
AC
330
17
100
AcDbEntity
  8
CTRL
  6
DASHED2
370
13
100
AcDbLine
 10
95.0
 20
178.0
 30
0.0
 11
100.0
 21
232.0
 31
0.0
  0
TEXT
  5
AD
330
17
100
AcDbEntity
  8
ANN
100
AcDbText
 10
320.0
 20
237.0
 30
0.0
 40
1.8
  1
NEW MV CABLE
 11
320.0
 21
237.0
 31
0.0
100
AcDbText
  0
TEXT
  5
AE
330
17
100
AcDbEntity
  8
ANN
100
AcDbText
 10
320.0
 20
232.5
 30
0.0
 40
1.8
  1
3x(1x120mm2) Cu XLPE 12/20(24)kV
 11
320.0
 21
232.5
 31
0.0
100
AcDbText
  0
TEXT
  5
AF
330
17
100
AcDbEntity
  8
ANN
100
AcDbText
 10
320.0
 20
228.0
 30
0.0
 40
1.8
  1
L = 25 m
 11
320.0
 21
228.0
 31
0.0
100
AcDbText
  0
TEXT
  5
B0
330
17
100
AcDbEntity
  8
ANN
100
AcDbText
 10
320.0
 20
223.5
 30
0.0
 40
1.8
  1
Loading: 12.4%
 11
320.0
 21
223.5
 31
0.0
100
AcDbText
  0
LINE
  5
B1
330
17
100
AcDbEntity
  8
DIM
370
13
100
AcDbLine
 10
318.0
 20
230.25
 30
0.0
 11
215.0
 21
240.0
 31
0.0
  0
TEXT
  5
B2
330
17
100
AcDbEntity
  8
ANN
100
AcDbText
 10
320.0
 20
238.0
 30
0.0
 40
1.8
  1
JZ5 — Schneider SM6
 11
320.0
 21
238.0
 31
0.0
100
AcDbText
  0
TEXT
  5
B3
330
17
100
AcDbEntity
  8
ANN
100
AcDbText
 10
320.0
 20
233.5
 30
0.0
 40
1.8
  1
Vacuum CB  24 kV  630 A
 11
320.0
 21
233.5
 31
0.0
100
AcDbText
  0
TEXT
  5
B4
330
17
100
AcDbEntity
  8
ANN
100
AcDbText
 10
320.0
 20
229.0
 30
0.0
 40
1.8
  1
25 kA/1s  motor-operated
 11
320.0
 21
229.0
 31
0.0
100
AcDbText
  0
TEXT
  5
B5
330
17
100
AcDbEntity
  8
ANN
100
AcDbText
 10
320.0
 20
224.5
 30
0.0
 40
1.8
  1
DS 3-pos  24 kV  630 A
 11
320.0
 21
224.5
 31
0.0
100
AcDbText
  0
LINE
  5
B6
330
17
100
AcDbEntity
  8
DIM
370
13
100
AcDbLine
 10
318.0
 20
231.25
 30
0.0
 11
215.0
 21
232.0
 31
0.0
  0
TEXT
  5
B7
330
17
100
AcDbEntity
  8
ANN
100
AcDbText
 10
320.0
 20
206.0
 30
0.0
 40
1.8
  1
CT: 200/1A  5P20 + 0.5
 11
320.0
 21
206.0
 31
0.0
100
AcDbText
  0
TEXT
  5
B8
330
17
100
AcDbEntity
  8
ANN
100
AcDbText
 10
320.0
 20
201.5
 30
0.0
 40
1.8
  1
    30 VA per core  3ph
 11
320.0
 21
201.5
 31
0.0
100
AcDbText
  0
TEXT
  5
B9
330
17
100
AcDbEntity
  8
ANN
100
AcDbText
 10
320.0
 20
197.0
 30
0.0
 40
1.8
  1
VT: 22/0.1kV  3P  Cl.0.5
 11
320.0
 21
197.0
 31
0.0
100
AcDbText
  0
LINE
  5
BA
330
17
100
AcDbEntity
  8
DIM
370
13
100
AcDbLine
 10
318.0
 20
201.5
 30
0.0
 11
214.0
 21
200.0
 31
0.0
  0
TEXT
  5
BB
330
17
100
AcDbEntity
  8
ANN
100
AcDbText
 10
320.0
 20
192.0
 30
0.0
 40
1.8
  1
SA-MV: ZnO 24kV/10kA cl.2
 11
320.0
 21
192.0
 31
0.0
100
AcDbText
  0
LINE
  5
BC
330
17
100
AcDbEntity
  8
DIM
370
13
100
AcDbLine
 10
318.0
 20
192.0
 30
0.0
 11
198.0
 21
190.0
 31
0.0
  0
TEXT
  5
BD
330
17
100
AcDbEntity
  8
ANN
100
AcDbText
 10
320.0
 20
180.0
 30
0.0
 40
1.8
  1
T3: 5000 kVA  ONAN
 11
320.0
 21
180.0
 31
0.0
100
AcDbText
  0
TEXT
  5
BE
330
17
100
AcDbEntity
  8
ANN
100
AcDbText
 10
320.0
 20
175.5
 30
0.0
 40
1.8
  1
22 / 0.69 kV  Dyn11
 11
320.0
 21
175.5
 31
0.0
100
AcDbText
  0
TEXT
  5
BF
330
17
100
AcDbEntity
  8
ANN
100
AcDbText
 10
320.0
 20
171.0
 30
0.0
 40
1.8
  1
Uk = 6%
 11
320.0
 21
171.0
 31
0.0
100
AcDbText
  0
TEXT
  5
C0
330
17
100
AcDbEntity
  8
ANN
100
AcDbText
 10
320.0
 20
166.5
 30
0.0
 40
1.8
  1
NER: R=25Ω  If≤16A  100kJ
 11
320.0
 21
166.5
 31
0.0
100
AcDbText
  0
TEXT
  5
C1
330
17
100
AcDbEntity
  8
ANN
100
AcDbText
 10
320.0
 20
162.0
 30
0.0
 40
1.8
  1
Loading: 99.4%
 11
320.0
 21
162.0
 31
0.0
100
AcDbText
  0
LINE
  5
C2
330
17
100
AcDbEntity
  8
DIM
370
13
100
AcDbLine
 10
318.0
 20
171.0
 30
0.0
 11
218.0
 21
170.0
 31
0.0
  0
TEXT
  5
C3
330
17
100
AcDbEntity
  8
ANN
100
AcDbText
 10
320.0
 20
123.0
 30
0.0
 40
1.8
  1
Main ACB  5000A  4P  690V
 11
320.0
 21
123.0
 31
0.0
100
AcDbText
  0
TEXT
  5
C4
330
17
100
AcDbEntity
  8
ANN
100
AcDbText
 10
320.0
 20
118.5
 30
0.0
 40
1.8
  1
Icu = 50 kA  ← UPGRADE TO 65kA
 11
320.0
 21
118.5
 31
0.0
100
AcDbText
  0
TEXT
  5
C5
330
17
100
AcDbEntity
  8
ANN
100
AcDbText
 10
320.0
 20
114.0
 30
0.0
 40
1.8
  1
SA-LV: 690V  In=20kA
 11
320.0
 21
114.0
 31
0.0
100
AcDbText
  0
LINE
  5
C6
330
17
100
AcDbEntity
  8
DIM
370
13
100
AcDbLine
 10
318.0
 20
118.5
 30
0.0
 11
215.0
 21
117.0
 31
0.0
  0
LWPOLYLINE
  5
C7
330
17
100
AcDbEntity
  8
ANN
100
AcDbPolyline
 90
4
 70
1
 10
318.0
 20
56.0
 10
408.0
 20
56.0
 10
408.0
 20
91.0
 10
318.0
 20
91.0
  0
TEXT
  5
C8
330
17
100
AcDbEntity
  8
ANN
100
AcDbText
 10
320.0
 20
85.0
 30
0.0
 40
1.8
  1
IEC 60909 SHORT CIRCUIT
 11
320.0
 21
85.0
 31
0.0
100
AcDbText
  0
TEXT
  5
C9
330
17
100
AcDbEntity
  8
ANN
100
AcDbText
 10
320.0
 20
79.0
 30
0.0
 40
2.2
  1
Ikss (LV) = 55.76 kA
 11
320.0
 21
79.0
 31
0.0
100
AcDbText
  0
TEXT
  5
CA
330
17
100
AcDbEntity
  8
ANN
100
AcDbText
 10
320.0
 20
73.0
 30
0.0
 40
1.8
  1
ACB 50kA: UPGRADE ACB to 65kA Icu
 11
320.0
 21
73.0
 31
0.0
100
AcDbText
  0
TEXT
  5
CB
330
17
100
AcDbEntity
  8
ANN
100
AcDbText
 10
320.0
 20
67.0
 30
0.0
 40
1.8
  1
Cable:  12.4%  Trafo:  99.4%
 11
320.0
 21
67.0
 31
0.0
100
AcDbText
  0
LINE
  5
CC
330
17
100
AcDbEntity
  8
MV
370
50
100
AcDbLine
 10
210.0
 20
279.0
 30
0.0
 11
210.0
 21
245.0
 31
0.0
  0
LINE
  5
CD
330
17
100
AcDbEntity
  8
MV
100
AcDbLine
 10
210.0
 20
279.0
 30
0.0
 11
206.0
 21
271.0
 31
0.0
  0
LINE
  5
CE
330
17
100
AcDbEntity
  8
MV
100
AcDbLine
 10
210.0
 20
279.0
 30
0.0
 11
214.0
 21
271.0
 31
0.0
  0
TEXT
  5
CF
330
17
100
AcDbEntity
  8
ANN
100
AcDbText
 10
214.0
 20
277.0
 30
0.0
 40
1.8
  1
to EAC RMU  22 kV
 11
214.0
 21
277.0
 31
0.0
100
AcDbText
  0
LINE
  5
D0
330
17
100
AcDbEntity
  8
BNDRY
  6
DASHED2
370
18
100
AcDbLine
 10
100.0
 20
259.0
 30
0.0
 11
318.0
 21
259.0
 31
0.0
  0
TEXT
  5
D1
330
17
100
AcDbEntity
  8
BNDRY
100
AcDbText
 10
102.0
 20
262.0
 30
0.0
 40
1.8
  1
DSO Area of Responsibility
 11
102.0
 21
262.0
 31
0.0
100
AcDbText
  0
TEXT
  5
D2
330
17
100
AcDbEntity
  8
BNDRY
100
AcDbText
 10
102.0
 20
253.0
 30
0.0
 40
1.8
  1
Private Area (Lighthief EPC Scope)
 11
102.0
 21
253.0
 31
0.0
100
AcDbText
  0
LINE
  5
D3
330
17
100
AcDbEntity
  8
MV
100
AcDbLine
 10
180.0
 20
245.0
 30
0.0
 11
180.0
 21
217.0
 31
0.0
  0
INSERT
  5
D4
330
17
100
AcDbEntity
  8
SYM
100
AcDbBlockReference
  2
_CB
 10
180.0
 20
235.0
 30
0.0
  0
LWPOLYLINE
  5
D6
330
17
100
AcDbEntity
  8
SYM
100
AcDbPolyline
 90
4
 70
1
 10
166.0
 20
203.0
 10
194.0
 20
203.0
 10
194.0
 20
217.0
 10
166.0
 20
217.0
  0
TEXT
  5
D7
330
17
100
AcDbEntity
  8
ANN
100
AcDbText
 10
180.0
 20
211.0
 30
0.0
 40
1.8
  1
Existing PV
 72
1
 11
180.0
 21
211.0
 31
0.0
100
AcDbText
 73
2
  0
TEXT
  5
D8
330
17
100
AcDbEntity
  8
ANN
100
AcDbText
 10
180.0
 20
206.0
 30
0.0
 40
1.8
  1
5 MWp PV Park
 72
1
 11
180.0
 21
206.0
 31
0.0
100
AcDbText
 73
2
  0
TEXT
  5
D9
330
17
100
AcDbEntity
  8
DIM
100
AcDbText
 10
164.0
 20
240.0
 30
0.0
 40
1.8
  1
existing
 11
164.0
 21
240.0
 31
0.0
100
AcDbText
  0
LINE
  5
DA
330
17
100
AcDbEntity
  8
MV
370
70
100
AcDbLine
 10
164.0
 20
245.0
 30
0.0
 11
260.0
 21
245.0
 31
0.0
  0
TEXT
  5
DB
330
17
100
AcDbEntity
  8
ANN
100
AcDbText
 10
164.0
 20
248.0
 30
0.0
 40
1.8
  1
22 kV  Customer Switching Substation
 11
164.0
 21
248.0
 31
0.0
100
AcDbText
  0
LWPOLYLINE
  5
DC
330
17
100
AcDbEntity
  8
SYM
370
35
100
AcDbPolyline
 90
4
 70
1
 10
192.0
 20
225.0
 10
228.0
 20
225.0
 10
228.0
 20
239.0
 10
192.0
 20
239.0
  0
TEXT
  5
DD
330
17
100
AcDbEntity
  8
ANN
100
AcDbText
 10
210.0
 20
234.0
 30
0.0
 40
1.8
  1
JZ5
 72
1
 11
210.0
 21
234.0
 31
0.0
100
AcDbText
 73
2
  0
INSERT
  5
DE
330
17
100
AcDbEntity
  8
SYM
100
AcDbBlockReference
  2
_CB
 10
210.0
 20
232.0
 30
0.0
  0
LINE
  5
E0
330
17
100
AcDbEntity
  8
MV
370
50
100
AcDbLine
 10
210.0
 20
225.0
 30
0.0
 11
210.0
 21
226.0
 31
0.0
  0
INSERT
  5
E1
330
17
100
AcDbEntity
  8
SYM
100
AcDbBlockReference
  2
_DS
 10
210.0
 20
215.0
 30
0.0
 41
0.9
 42
0.9
  0
LINE
  5
E3
330
17
100
AcDbEntity
  8
MV
370
50
100
AcDbLine
 10
210.0
 20
210.0
 30
0.0
 11
210.0
 21
206.0
 31
0.0
  0
INSERT
  5
E4
330
17
100
AcDbEntity
  8
SYM
100
AcDbBlockReference
  2
_CT
 10
210.0
 20
200.0
 30
0.0
  0
LINE
  5
E6
330
17
100
AcDbEntity
  8
MV
100
AcDbLine
 10
210.0
 20
200.0
 30
0.0
 11
194.0
 21
200.0
 31
0.0
  0
INSERT
  5
E7
330
17
100
AcDbEntity
  8
SYM
100
AcDbBlockReference
  2
_VT
 10
194.0
 20
200.0
 30
0.0
 41
0.8
 42
0.8
  0
TEXT
  5
E9
330
17
100
AcDbEntity
  8
ANN
100
AcDbText
 10
189.0
 20
203.0
 30
0.0
 40
1.8
  1
VT
 72
1
 11
189.0
 21
203.0
 31
0.0
100
AcDbText
 73
2
  0
LINE
  5
EA
330
17
100
AcDbEntity
  8
MV
370
50
100
AcDbLine
 10
210.0
 20
194.0
 30
0.0
 11
210.0
 21
202.0
 31
0.0
  0
LINE
  5
EB
330
17
100
AcDbEntity
  8
MV
100
AcDbLine
 10
210.0
 20
190.0
 30
0.0
 11
192.0
 21
190.0
 31
0.0
  0
INSERT
  5
EC
330
17
100
AcDbEntity
  8
SYM
100
AcDbBlockReference
  2
_SA
 10
192.0
 20
190.0
 30
0.0
  0
INSERT
  5
EE
330
17
100
AcDbEntity
  8
SYM
100
AcDbBlockReference
  2
_TX
 10
210.0
 20
170.0
 30
0.0
  0
LINE
  5
F0
330
17
100
AcDbEntity
  8
LV
370
50
100
AcDbLine
 10
210.0
 20
156.0
 30
0.0
 11
210.0
 21
134.0
 31
0.0
  0
LINE
  5
F1
330
17
100
AcDbEntity
  8
LV
100
AcDbLine
 10
210.0
 20
154.0
 30
0.0
 11
240.0
 21
154.0
 31
0.0
  0
INSERT
  5
F2
330
17
100
AcDbEntity
  8
SYM
100
AcDbBlockReference
  2
_NER
 10
240.0
 20
150.0
 30
0.0
  0
INSERT
  5
F4
330
17
100
AcDbEntity
  8
SYM
100
AcDbBlockReference
  2
_M
 10
210.0
 20
144.0
 30
0.0
  0
TEXT
  5
F6
330
17
100
AcDbEntity
  8
ANN
100
AcDbText
 10
216.0
 20
145.0
 30
0.0
 40
1.8
  1
Revenue Meter  Cl.0.2S
 11
216.0
 21
145.0
 31
0.0
100
AcDbText
  0
LINE
  5
F7
330
17
100
AcDbEntity
  8
LV
370
70
100
AcDbLine
 10
130.0
 20
134.0
 30
0.0
 11
290.0
 21
134.0
 31
0.0
  0
TEXT
  5
F8
330
17
100
AcDbEntity
  8
ANN
100
AcDbText
 10
130.0
 20
137.0
 30
0.0
 40
1.8
  1
690 V  LV Bus
 11
130.0
 21
137.0
 31
0.0
100
AcDbText
  0
LINE
  5
F9
330
17
100
AcDbEntity
  8
LV
370
50
100
AcDbLine
 10
210.0
 20
134.0
 30
0.0
 11
210.0
 21
122.5
 31
0.0
  0
INSERT
  5
FA
330
17
100
AcDbEntity
  8
SYM
100
AcDbBlockReference
  2
_ACB_M
 10
210.0
 20
117.0
 30
0.0
  0
LINE
  5
FC
330
17
100
AcDbEntity
  8
LV
100
AcDbLine
 10
210.0
 20
117.0
 30
0.0
 11
230.0
 21
117.0
 31
0.0
  0
INSERT
  5
FD
330
17
100
AcDbEntity
  8
SYM
100
AcDbBlockReference
  2
_SA
 10
230.0
 20
117.0
 30
0.0
 41
0.8
 42
0.8
  0
LINE
  5
FF
330
17
100
AcDbEntity
  8
LV
370
50
100
AcDbLine
 10
210.0
 20
111.5
 30
0.0
 11
210.0
 21
98.0
 31
0.0
  0
LINE
  5
100
330
17
100
AcDbEntity
  8
LV
370
35
100
AcDbLine
 10
138.0
 20
98.0
 30
0.0
 11
282.0
 21
98.0
 31
0.0
  0
LINE
  5
101
330
17
100
AcDbEntity
  8
LV
100
AcDbLine
 10
138.0
 20
98.0
 30
0.0
 11
138.0
 21
94.0
 31
0.0
  0
INSERT
  5
102
330
17
100
AcDbEntity
  8
SYM
100
AcDbBlockReference
  2
_ACB_B
 10
138.0
 20
90.0
 30
0.0
  0
TEXT
  5
104
330
17
100
AcDbEntity
  8
DIM
100
AcDbText
 10
138.0
 20
83.0
 30
0.0
 40
1.8
  1
1250A
 72
1
 11
138.0
 21
83.0
 31
0.0
100
AcDbText
 73
2
  0
LINE
  5
105
330
17
100
AcDbEntity
  8
LV
100
AcDbLine
 10
138.0
 20
86.0
 30
0.0
 11
138.0
 21
75.0
 31
0.0
  0
LWPOLYLINE
  5
106
330
17
100
AcDbEntity
  8
SYM
370
35
100
AcDbPolyline
 90
4
 70
1
 10
119.0
 20
47.0
 10
157.0
 20
47.0
 10
157.0
 20
75.0
 10
119.0
 20
75.0
  0
LINE
  5
107
330
17
100
AcDbEntity
  8
SYM
100
AcDbLine
 10
119.0
 20
62.400000000000006
 30
0.0
 11
157.0
 21
62.400000000000006
 31
0.0
  0
TEXT
  5
108
330
17
100
AcDbEntity
  8
ANN
100
AcDbText
 10
138.0
 20
65.4
 30
0.0
 40
1.8
  1
PCS-1
 72
1
 11
138.0
 21
65.4
 31
0.0
100
AcDbText
 73
2
  0
TEXT
  5
109
330
17
100
AcDbEntity
  8
DIM
100
AcDbText
 10
138.0
 20
61.400000000000006
 30
0.0
 40
1.8
  1
BCS1250K
 72
1
 11
138.0
 21
61.400000000000006
 31
0.0
100
AcDbText
 73
2
  0
TEXT
  5
10A
330
17
100
AcDbEntity
  8
ANN
100
AcDbText
 10
138.0
 20
56.400000000000006
 30
0.0
 40
1.8
  1
1.2 MW
 72
1
 11
138.0
 21
56.400000000000006
 31
0.0
100
AcDbText
 73
2
  0
TEXT
  5
10B
330
17
100
AcDbEntity
  8
ANN
100
AcDbText
 10
138.0
 20
56.0
 30
0.0
 40
1.8
  1
BESS-1
 72
1
 11
138.0
 21
56.0
 31
0.0
100
AcDbText
 73
2
  0
TEXT
  5
10C
330
17
100
AcDbEntity
  8
DIM
100
AcDbText
 10
138.0
 20
50.64
 30
0.0
 40
1.8
  1
5 MWh  LFP
 72
1
 11
138.0
 21
50.64
 31
0.0
100
AcDbText
 73
2
  0
LINE
  5
10D
330
17
100
AcDbEntity
  8
LV
100
AcDbLine
 10
186.0
 20
98.0
 30
0.0
 11
186.0
 21
94.0
 31
0.0
  0
INSERT
  5
10E
330
17
100
AcDbEntity
  8
SYM
100
AcDbBlockReference
  2
_ACB_B
 10
186.0
 20
90.0
 30
0.0
  0
TEXT
  5
110
330
17
100
AcDbEntity
  8
DIM
100
AcDbText
 10
186.0
 20
83.0
 30
0.0
 40
1.8
  1
1250A
 72
1
 11
186.0
 21
83.0
 31
0.0
100
AcDbText
 73
2
  0
LINE
  5
111
330
17
100
AcDbEntity
  8
LV
100
AcDbLine
 10
186.0
 20
86.0
 30
0.0
 11
186.0
 21
75.0
 31
0.0
  0
LWPOLYLINE
  5
112
330
17
100
AcDbEntity
  8
SYM
370
35
100
AcDbPolyline
 90
4
 70
1
 10
167.0
 20
47.0
 10
205.0
 20
47.0
 10
205.0
 20
75.0
 10
167.0
 20
75.0
  0
LINE
  5
113
330
17
100
AcDbEntity
  8
SYM
100
AcDbLine
 10
167.0
 20
62.400000000000006
 30
0.0
 11
205.0
 21
62.400000000000006
 31
0.0
  0
TEXT
  5
114
330
17
100
AcDbEntity
  8
ANN
100
AcDbText
 10
186.0
 20
65.4
 30
0.0
 40
1.8
  1
PCS-2
 72
1
 11
186.0
 21
65.4
 31
0.0
100
AcDbText
 73
2
  0
TEXT
  5
115
330
17
100
AcDbEntity
  8
DIM
100
AcDbText
 10
186.0
 20
61.400000000000006
 30
0.0
 40
1.8
  1
BCS1250K
 72
1
 11
186.0
 21
61.400000000000006
 31
0.0
100
AcDbText
 73
2
  0
TEXT
  5
116
330
17
100
AcDbEntity
  8
ANN
100
AcDbText
 10
186.0
 20
56.400000000000006
 30
0.0
 40
1.8
  1
1.2 MW
 72
1
 11
186.0
 21
56.400000000000006
 31
0.0
100
AcDbText
 73
2
  0
TEXT
  5
117
330
17
100
AcDbEntity
  8
ANN
100
AcDbText
 10
186.0
 20
56.0
 30
0.0
 40
1.8
  1
BESS-2
 72
1
 11
186.0
 21
56.0
 31
0.0
100
AcDbText
 73
2
  0
TEXT
  5
118
330
17
100
AcDbEntity
  8
DIM
100
AcDbText
 10
186.0
 20
50.64
 30
0.0
 40
1.8
  1
5 MWh  LFP
 72
1
 11
186.0
 21
50.64
 31
0.0
100
AcDbText
 73
2
  0
LINE
  5
119
330
17
100
AcDbEntity
  8
LV
100
AcDbLine
 10
234.0
 20
98.0
 30
0.0
 11
234.0
 21
94.0
 31
0.0
  0
INSERT
  5
11A
330
17
100
AcDbEntity
  8
SYM
100
AcDbBlockReference
  2
_ACB_B
 10
234.0
 20
90.0
 30
0.0
  0
TEXT
  5
11C
330
17
100
AcDbEntity
  8
DIM
100
AcDbText
 10
234.0
 20
83.0
 30
0.0
 40
1.8
  1
1250A
 72
1
 11
234.0
 21
83.0
 31
0.0
100
AcDbText
 73
2
  0
LINE
  5
11D
330
17
100
AcDbEntity
  8
LV
100
AcDbLine
 10
234.0
 20
86.0
 30
0.0
 11
234.0
 21
75.0
 31
0.0
  0
LWPOLYLINE
  5
11E
330
17
100
AcDbEntity
  8
SYM
370
35
100
AcDbPolyline
 90
4
 70
1
 10
215.0
 20
47.0
 10
253.0
 20
47.0
 10
253.0
 20
75.0
 10
215.0
 20
75.0
  0
LINE
  5
11F
330
17
100
AcDbEntity
  8
SYM
100
AcDbLine
 10
215.0
 20
62.400000000000006
 30
0.0
 11
253.0
 21
62.400000000000006
 31
0.0
  0
TEXT
  5
120
330
17
100
AcDbEntity
  8
ANN
100
AcDbText
 10
234.0
 20
65.4
 30
0.0
 40
1.8
  1
PCS-3
 72
1
 11
234.0
 21
65.4
 31
0.0
100
AcDbText
 73
2
  0
TEXT
  5
121
330
17
100
AcDbEntity
  8
DIM
100
AcDbText
 10
234.0
 20
61.400000000000006
 30
0.0
 40
1.8
  1
BCS1250K
 72
1
 11
234.0
 21
61.400000000000006
 31
0.0
100
AcDbText
 73
2
  0
TEXT
  5
122
330
17
100
AcDbEntity
  8
ANN
100
AcDbText
 10
234.0
 20
56.400000000000006
 30
0.0
 40
1.8
  1
1.2 MW
 72
1
 11
234.0
 21
56.400000000000006
 31
0.0
100
AcDbText
 73
2
  0
TEXT
  5
123
330
17
100
AcDbEntity
  8
ANN
100
AcDbText
 10
234.0
 20
56.0
 30
0.0
 40
1.8
  1
BESS-3
 72
1
 11
234.0
 21
56.0
 31
0.0
100
AcDbText
 73
2
  0
TEXT
  5
124
330
17
100
AcDbEntity
  8
DIM
100
AcDbText
 10
234.0
 20
50.64
 30
0.0
 40
1.8
  1
5 MWh  LFP
 72
1
 11
234.0
 21
50.64
 31
0.0
100
AcDbText
 73
2
  0
LINE
  5
125
330
17
100
AcDbEntity
  8
LV
100
AcDbLine
 10
282.0
 20
98.0
 30
0.0
 11
282.0
 21
94.0
 31
0.0
  0
INSERT
  5
126
330
17
100
AcDbEntity
  8
SYM
100
AcDbBlockReference
  2
_ACB_B
 10
282.0
 20
90.0
 30
0.0
  0
TEXT
  5
128
330
17
100
AcDbEntity
  8
DIM
100
AcDbText
 10
282.0
 20
83.0
 30
0.0
 40
1.8
  1
1250A
 72
1
 11
282.0
 21
83.0
 31
0.0
100
AcDbText
 73
2
  0
LINE
  5
129
330
17
100
AcDbEntity
  8
LV
100
AcDbLine
 10
282.0
 20
86.0
 30
0.0
 11
282.0
 21
75.0
 31
0.0
  0
LWPOLYLINE
  5
12A
330
17
100
AcDbEntity
  8
SYM
370
35
100
AcDbPolyline
 90
4
 70
1
 10
263.0
 20
47.0
 10
301.0
 20
47.0
 10
301.0
 20
75.0
 10
263.0
 20
75.0
  0
LINE
  5
12B
330
17
100
AcDbEntity
  8
SYM
100
AcDbLine
 10
263.0
 20
62.400000000000006
 30
0.0
 11
301.0
 21
62.400000000000006
 31
0.0
  0
TEXT
  5
12C
330
17
100
AcDbEntity
  8
ANN
100
AcDbText
 10
282.0
 20
65.4
 30
0.0
 40
1.8
  1
PCS-4
 72
1
 11
282.0
 21
65.4
 31
0.0
100
AcDbText
 73
2
  0
TEXT
  5
12D
330
17
100
AcDbEntity
  8
DIM
100
AcDbText
 10
282.0
 20
61.400000000000006
 30
0.0
 40
1.8
  1
BCS1250K
 72
1
 11
282.0
 21
61.400000000000006
 31
0.0
100
AcDbText
 73
2
  0
TEXT
  5
12E
330
17
100
AcDbEntity
  8
ANN
100
AcDbText
 10
282.0
 20
56.400000000000006
 30
0.0
 40
1.8
  1
1.2 MW
 72
1
 11
282.0
 21
56.400000000000006
 31
0.0
100
AcDbText
 73
2
  0
TEXT
  5
12F
330
17
100
AcDbEntity
  8
ANN
100
AcDbText
 10
282.0
 20
56.0
 30
0.0
 40
1.8
  1
BESS-4
 72
1
 11
282.0
 21
56.0
 31
0.0
100
AcDbText
 73
2
  0
TEXT
  5
130
330
17
100
AcDbEntity
  8
DIM
100
AcDbText
 10
282.0
 20
50.64
 30
0.0
 40
1.8
  1
5 MWh  LFP
 72
1
 11
282.0
 21
50.64
 31
0.0
100
AcDbText
 73
2
  0
LWPOLYLINE
  5
131
330
17
100
AcDbEntity
  8
SYM
100
AcDbPolyline
 90
4
 70
1
 10
311.0
 20
63.0
 10
329.0
 20
63.0
 10
329.0
 20
75.0
 10
311.0
 20
75.0
  0
TEXT
  5
132
330
17
100
AcDbEntity
  8
ANN
100
AcDbText
 10
320.0
 20
69.0
 30
0.0
 40
3.0
  1
BMS
 72
1
 11
320.0
 21
69.0
 31
0.0
100
AcDbText
 73
2
  0
LINE
  5
133
330
17
100
AcDbEntity
  8
CTRL
  6
DASHED2
370
13
100
AcDbLine
 10
311.0
 20
69.0
 30
0.0
 11
318.0
 21
134.0
 31
0.0
  0
LWPOLYLINE
  5
134
330
17
100
AcDbEntity
  8
SYM
100
AcDbPolyline
 90
4
 70
1
 10
311.0
 20
45.0
 10
329.0
 20
45.0
 10
329.0
 20
57.0
 10
311.0
 20
57.0
  0
TEXT
  5
135
330
17
100
AcDbEntity
  8
ANN
100
AcDbText
 10
320.0
 20
51.0
 30
0.0
 40
3.0
  1
EMS
 72
1
 11
320.0
 21
51.0
 31
0.0
100
AcDbText
 73
2
  0
LINE
  5
136
330
17
100
AcDbEntity
  8
CTRL
  6
DASHED2
370
13
100
AcDbLine
 10
311.0
 20
51.0
 30
0.0
 11
318.0
 21
134.0
 31
0.0
  0
ENDSEC
  0
SECTION
  2
OBJECTS
  0
DICTIONARY
  5
A
330
0
100
AcDbDictionary
281
1
  3
ACAD_COLOR
350
B
  3
ACAD_GROUP
350
C
  3
ACAD_LAYOUT
350
D
  3
ACAD_MATERIAL
350
E
  3
ACAD_MLEADERSTYLE
350
F
  3
ACAD_MLINESTYLE
350
10
  3
ACAD_PLOTSETTINGS
350
11
  3
ACAD_PLOTSTYLENAME
350
12
  3
ACAD_SCALELIST
350
14
  3
ACAD_TABLESTYLE
350
15
  3
ACAD_VISUALSTYLE
350
16
  3
EZDXF_META
350
2D
  0
DICTIONARY
  5
B
330
A
100
AcDbDictionary
281
1
  0
DICTIONARY
  5
C
330
A
100
AcDbDictionary
281
1
  0
DICTIONARY
  5
D
330
A
100
AcDbDictionary
281
1
  3
Model
350
1A
  3
Layout1
350
1E
  0
DICTIONARY
  5
E
330
A
100
AcDbDictionary
281
1
  3
ByBlock
350
1F
  3
ByLayer
350
20
  3
Global
350
21
  0
DICTIONARY
  5
F
330
A
100
AcDbDictionary
281
1
  3
Standard
350
2C
  0
DICTIONARY
  5
10
330
A
100
AcDbDictionary
281
1
  3
Standard
350
22
  0
DICTIONARY
  5
11
330
A
100
AcDbDictionary
281
1
  0
ACDBDICTIONARYWDFLT
  5
12
330
A
100
AcDbDictionary
281
1
  3
Normal
350
13
100
AcDbDictionaryWithDefault
340
13
  0
ACDBPLACEHOLDER
  5
13
330
12
  0
DICTIONARY
  5
14
330
A
100
AcDbDictionary
281
1
  0
DICTIONARY
  5
15
330
A
100
AcDbDictionary
281
1
  0
DICTIONARY
  5
16
330
A
100
AcDbDictionary
281
1
  0
LAYOUT
  5
1A
330
D
100
AcDbPlotSettings
  1

  4
A3
  6

 40
7.5
 41
20.0
 42
7.5
 43
20.0
 44
420.0
 45
297.0
 46
0.0
 47
0.0
 48
0.0
 49
0.0
140
0.0
141
0.0
142
1.0
143
1.0
 70
1024
 72
1
 73
0
 74
5
  7

 75
16
 76
0
 77
2
 78
300
147
1.0
148
0.0
149
0.0
100
AcDbLayout
  1
Model
 70
1
 71
0
 10
0.0
 20
0.0
 11
420.0
 21
297.0
 12
0.0
 22
0.0
 32
0.0
 14
1e+20
 24
1e+20
 34
1e+20
 15
-1e+20
 25
-1e+20
 35
-1e+20
146
0.0
 13
0.0
 23
0.0
 33
0.0
 16
1.0
 26
0.0
 36
0.0
 17
0.0
 27
1.0
 37
0.0
 76
1
330
17
  0
LAYOUT
  5
1E
330
D
100
AcDbPlotSettings
  1

  4
A3
  6

 40
7.5
 41
20.0
 42
7.5
 43
20.0
 44
420.0
 45
297.0
 46
0.0
 47
0.0
 48
0.0
 49
0.0
140
0.0
141
0.0
142
1.0
143
1.0
 70
0
 72
1
 73
0
 74
5
  7

 75
16
 76
0
 77
2
 78
300
147
1.0
148
0.0
149
0.0
100
AcDbLayout
  1
Layout1
 70
1
 71
1
 10
0.0
 20
0.0
 11
420.0
 21
297.0
 12
0.0
 22
0.0
 32
0.0
 14
1e+20
 24
1e+20
 34
1e+20
 15
-1e+20
 25
-1e+20
 35
-1e+20
146
0.0
 13
0.0
 23
0.0
 33
0.0
 16
1.0
 26
0.0
 36
0.0
 17
0.0
 27
1.0
 37
0.0
 76
1
330
1B
  0
MATERIAL
  5
1F
102
{ACAD_REACTORS
330
E
102
}
330
E
100
AcDbMaterial
  1
ByBlock
  2

 70
0
 40
1.0
 71
1
 41
1.0
 91
-1023410177
 42
1.0
 72
1
  3

 73
1
 74
1
 75
1
 44
0.5
 73
0
 45
1.0
 46
1.0
 77
1
  4

 78
1
 79
1
170
1
 48
1.0
171
1
  6

172
1
173
1
174
1
140
1.0
141
1.0
175
1
  7

176
1
177
1
178
1
143
1.0
179
1
  8

270
1
271
1
272
1
145
1.0
146
1.0
273
1
  9

274
1
275
1
276
1
 42
1.0
 72
1
  3

 73
1
 74
1
 75
1
 94
63
  0
MATERIAL
  5
20
102
{ACAD_REACTORS
330
E
102
}
330
E
100
AcDbMaterial
  1
ByLayer
  2

 70
0
 40
1.0
 71
1
 41
1.0
 91
-1023410177
 42
1.0
 72
1
  3

 73
1
 74
1
 75
1
 44
0.5
 73
0
 45
1.0
 46
1.0
 77
1
  4

 78
1
 79
1
170
1
 48
1.0
171
1
  6

172
1
173
1
174
1
140
1.0
141
1.0
175
1
  7

176
1
177
1
178
1
143
1.0
179
1
  8

270
1
271
1
272
1
145
1.0
146
1.0
273
1
  9

274
1
275
1
276
1
 42
1.0
 72
1
  3

 73
1
 74
1
 75
1
 94
63
  0
MATERIAL
  5
21
102
{ACAD_REACTORS
330
E
102
}
330
E
100
AcDbMaterial
  1
Global
  2

 70
0
 40
1.0
 71
1
 41
1.0
 91
-1023410177
 42
1.0
 72
1
  3

 73
1
 74
1
 75
1
 44
0.5
 73
0
 45
1.0
 46
1.0
 77
1
  4

 78
1
 79
1
170
1
 48
1.0
171
1
  6

172
1
173
1
174
1
140
1.0
141
1.0
175
1
  7

176
1
177
1
178
1
143
1.0
179
1
  8

270
1
271
1
272
1
145
1.0
146
1.0
273
1
  9

274
1
275
1
276
1
 42
1.0
 72
1
  3

 73
1
 74
1
 75
1
 94
63
  0
MLINESTYLE
  5
22
102
{ACAD_REACTORS
330
10
102
}
330
10
100
AcDbMlineStyle
  2
Standard
 70
0
  3

 62
256
 51
90.0
 52
90.0
 71
2
 49
0.5
 62
256
  6
BYLAYER
 49
-0.5
 62
256
  6
BYLAYER
  0
MLEADERSTYLE
  5
2C
102
{ACAD_REACTORS
330
F
102
}
330
F
100
AcDbMLeaderStyle
179
2
170
2
171
1
172
0
 90
2
 40
0.0
 41
0.0
173
1
 91
-1056964608
 92
-2
290
1
 42
2.0
291
1
 43
8.0
  3
Standard
 44
4.0
300

342
29
174
1
175
1
176
0
178
1
 93
-1056964608
 45
4.0
292
0
297
0
 46
4.0
 94
-1056964608
 47
1.0
 49
1.0
140
1.0
294
1
141
0.0
177
0
142
1.0
295
0
296
0
143
3.75
271
0
272
9
273
9
  0
DICTIONARY
  5
2D
330
A
100
AcDbDictionary
280
1
281
1
  3
CREATED_BY_EZDXF
350
2E
  3
WRITTEN_BY_EZDXF
350
139
  0
DICTIONARYVAR
  5
2E
330
2D
100
DictionaryVariables
280
0
  1
1.4.3 @ 2026-04-28T11:41:50.179301+00:00
  0
DICTIONARYVAR
  5
139
330
2D
100
DictionaryVariables
280
0
  1
1.4.3 @ 2026-04-28T11:41:50.186793+00:00
  0
ENDSEC
  0
EOF
